<?xml version="1.0" encoding="UTF-8"?>
<svg xmlns="http://www.w3.org/2000/svg" width="1400" height="980" viewBox="0 0 1400 980">
<rect width="100%" height="100%" fill="#f8fafc"/>
<text x="40" y="52" font-family="Arial, Helvetica, sans-serif" font-size="30" fill="#19315a" font-weight="700">Course Rank Order by Weighted Score</text>
<line x1="520.0" y1="90" x2="520.0" y2="946" stroke="#9ca3af" stroke-width="2"/>
<text x="40" y="134" font-family="Arial, Helvetica, sans-serif" font-size="20" fill="#1f2937">#1 ACC 6060 Professionalism and Leadership</text>
<rect x="520.0" y="110" width="800.0" height="36" fill="#3b82f6" rx="3"/>
<text x="1330" y="134" font-family="Arial, Helvetica, sans-serif" font-size="18" fill="#374151">2.745</text>
<text x="40" y="178" font-family="Arial, Helvetica, sans-serif" font-size="20" fill="#1f2937">#2 ACC 6400 Advanced Tax Business Entities</text>
<rect x="520.0" y="154" width="741.3" height="36" fill="#3b82f6" rx="3"/>
<text x="1330" y="178" font-family="Arial, Helvetica, sans-serif" font-size="18" fill="#374151">2.544</text>
<text x="40" y="222" font-family="Arial, Helvetica, sans-serif" font-size="20" fill="#1f2937">#3 ACC 6150 Info Sys Audit</text>
<rect x="520.0" y="198" width="587.1" height="36" fill="#3b82f6" rx="3"/>
<text x="1330" y="222" font-family="Arial, Helvetica, sans-serif" font-size="18" fill="#374151">2.015</text>
<text x="40" y="266" font-family="Arial, Helvetica, sans-serif" font-size="20" fill="#1f2937">#4 ACC 6300 Data Analytics</text>
<rect x="520.0" y="242" width="541.6" height="36" fill="#3b82f6" rx="3"/>
<text x="1330" y="266" font-family="Arial, Helvetica, sans-serif" font-size="18" fill="#374151">1.859</text>
<text x="40" y="310" font-family="Arial, Helvetica, sans-serif" font-size="20" fill="#1f2937">#5 ACC 6560 Financial Theory &amp; Research I</text>
<rect x="520.0" y="286" width="460.3" height="36" fill="#3b82f6" rx="3"/>
<text x="1330" y="310" font-family="Arial, Helvetica, sans-serif" font-size="18" fill="#374151">1.580</text>
<text x="40" y="354" font-family="Arial, Helvetica, sans-serif" font-size="20" fill="#1f2937">#6 ACC 6600 Business Law for Accountants</text>
<rect x="520.0" y="330" width="440.8" height="36" fill="#3b82f6" rx="3"/>
<text x="1330" y="354" font-family="Arial, Helvetica, sans-serif" font-size="18" fill="#374151">1.513</text>
<text x="40" y="398" font-family="Arial, Helvetica, sans-serif" font-size="20" fill="#1f2937">#7 ACC 6420 Corporate Tax</text>
<rect x="520.0" y="374" width="437.2" height="36" fill="#3b82f6" rx="3"/>
<text x="1330" y="398" font-family="Arial, Helvetica, sans-serif" font-size="18" fill="#374151">1.500</text>
<text x="40" y="442" font-family="Arial, Helvetica, sans-serif" font-size="20" fill="#1f2937">#8 ACC 6030 Financial Accounting Reporting</text>
<rect x="520.0" y="418" width="410.4" height="36" fill="#3b82f6" rx="3"/>
<text x="1330" y="442" font-family="Arial, Helvetica, sans-serif" font-size="18" fill="#374151">1.409</text>
<text x="40" y="486" font-family="Arial, Helvetica, sans-serif" font-size="20" fill="#1f2937">#9 ACC 6350 Managment Control Systems</text>
<rect x="520.0" y="462" width="404.1" height="36" fill="#3b82f6" rx="3"/>
<text x="1330" y="486" font-family="Arial, Helvetica, sans-serif" font-size="18" fill="#374151">1.387</text>
<text x="40" y="530" font-family="Arial, Helvetica, sans-serif" font-size="20" fill="#1f2937">#10 ACC 6600 Business Law for Accountants (if taken as an elective)</text>
<rect x="520.0" y="506" width="394.5" height="36" fill="#3b82f6" rx="3"/>
<text x="1330" y="530" font-family="Arial, Helvetica, sans-serif" font-size="18" fill="#374151">1.354</text>
<text x="40" y="574" font-family="Arial, Helvetica, sans-serif" font-size="20" fill="#1f2937">#11 ACC 6410 Tax Research &amp; Procedure</text>
<rect x="520.0" y="550" width="393.2" height="36" fill="#3b82f6" rx="3"/>
<text x="1330" y="574" font-family="Arial, Helvetica, sans-serif" font-size="18" fill="#374151">1.349</text>
<text x="40" y="618" font-family="Arial, Helvetica, sans-serif" font-size="20" fill="#1f2937">#12 ACC 6140 Fraud Exam &amp; Forensic Acc</text>
<rect x="520.0" y="594" width="361.1" height="36" fill="#3b82f6" rx="3"/>
<text x="1330" y="618" font-family="Arial, Helvetica, sans-serif" font-size="18" fill="#374151">1.239</text>
<text x="40" y="662" font-family="Arial, Helvetica, sans-serif" font-size="20" fill="#1f2937">#13 ACC 6350 Mgmt Control Sys (if taken as an elective)</text>
<rect x="520.0" y="638" width="358.2" height="36" fill="#3b82f6" rx="3"/>
<text x="1330" y="662" font-family="Arial, Helvetica, sans-serif" font-size="18" fill="#374151">1.229</text>
<text x="40" y="706" font-family="Arial, Helvetica, sans-serif" font-size="20" fill="#1f2937">#14 ACC 6250 Financial Reporting and Analysis</text>
<rect x="520.0" y="682" width="356.1" height="36" fill="#3b82f6" rx="3"/>
<text x="1330" y="706" font-family="Arial, Helvetica, sans-serif" font-size="18" fill="#374151">1.222</text>
<text x="40" y="750" font-family="Arial, Helvetica, sans-serif" font-size="20" fill="#1f2937">#15 ACC 6440 Partnership Tax</text>
<rect x="520.0" y="726" width="341.0" height="36" fill="#3b82f6" rx="3"/>
<text x="1330" y="750" font-family="Arial, Helvetica, sans-serif" font-size="18" fill="#374151">1.170</text>
<text x="40" y="794" font-family="Arial, Helvetica, sans-serif" font-size="20" fill="#1f2937">#16 ACC 679R Special Topics</text>
<rect x="520.0" y="770" width="293.3" height="36" fill="#3b82f6" rx="3"/>
<text x="1330" y="794" font-family="Arial, Helvetica, sans-serif" font-size="18" fill="#374151">1.007</text>
<text x="40" y="838" font-family="Arial, Helvetica, sans-serif" font-size="20" fill="#1f2937">#17 ACC 6510 Financial Audit</text>
<rect x="520.0" y="814" width="246.0" height="36" fill="#3b82f6" rx="3"/>
<text x="1330" y="838" font-family="Arial, Helvetica, sans-serif" font-size="18" fill="#374151">0.844</text>
<text x="40" y="882" font-family="Arial, Helvetica, sans-serif" font-size="20" fill="#1f2937">#18 ACC 6610 Finance Statement Research</text>
<rect x="520.0" y="858" width="231.2" height="36" fill="#3b82f6" rx="3"/>
<text x="1330" y="882" font-family="Arial, Helvetica, sans-serif" font-size="18" fill="#374151">0.793</text>
<text x="40" y="926" font-family="Arial, Helvetica, sans-serif" font-size="20" fill="#1f2937">#19 ACC 6540 Professional Ethics</text>
<rect x="520.0" y="902" width="1.0" height="36" fill="#3b82f6" rx="3"/>
<text x="1330" y="926" font-family="Arial, Helvetica, sans-serif" font-size="18" fill="#374151">0.000</text>
<rect x="40" y="940" width="18" height="18" fill="#3b82f6"/>
<text x="66" y="945" font-family="Arial, Helvetica, sans-serif" font-size="18" fill="#374151">Positive score</text>
</svg>