<?xml version="1.0" encoding="UTF-8"?>
<svg xmlns="http://www.w3.org/2000/svg" width="1400" height="980" viewBox="0 0 1400 980">
<rect width="100%" height="100%" fill="#f8fafc"/>
<text x="40" y="52" font-family="Arial, Helvetica, sans-serif" font-size="30" fill="#19315a" font-weight="700">Course Rank Order by Weighted Score</text>
<line x1="796.8" y1="90" x2="796.8" y2="946" stroke="#9ca3af" stroke-width="2"/>
<text x="40" y="134" font-family="Arial, Helvetica, sans-serif" font-size="20" fill="#1f2937">#1 ACC 6060 Professionalism and Leadership</text>
<rect x="796.8" y="110" width="523.2" height="36" fill="#3b82f6" rx="3"/>
<text x="1330" y="134" font-family="Arial, Helvetica, sans-serif" font-size="18" fill="#374151">1.795</text>
<text x="40" y="178" font-family="Arial, Helvetica, sans-serif" font-size="20" fill="#1f2937">#2 ACC 6400 Advanced Tax Business Entities</text>
<rect x="796.8" y="154" width="464.5" height="36" fill="#3b82f6" rx="3"/>
<text x="1330" y="178" font-family="Arial, Helvetica, sans-serif" font-size="18" fill="#374151">1.594</text>
<text x="40" y="222" font-family="Arial, Helvetica, sans-serif" font-size="20" fill="#1f2937">#3 ACC 6150 Info Sys Audit</text>
<rect x="796.8" y="198" width="310.3" height="36" fill="#3b82f6" rx="3"/>
<text x="1330" y="222" font-family="Arial, Helvetica, sans-serif" font-size="18" fill="#374151">1.065</text>
<text x="40" y="266" font-family="Arial, Helvetica, sans-serif" font-size="20" fill="#1f2937">#4 ACC 6300 Data Analytics</text>
<rect x="796.8" y="242" width="264.7" height="36" fill="#3b82f6" rx="3"/>
<text x="1330" y="266" font-family="Arial, Helvetica, sans-serif" font-size="18" fill="#374151">0.908</text>
<text x="40" y="310" font-family="Arial, Helvetica, sans-serif" font-size="20" fill="#1f2937">#5 ACC 6560 Financial Theory &amp; Research I</text>
<rect x="796.8" y="286" width="183.5" height="36" fill="#3b82f6" rx="3"/>
<text x="1330" y="310" font-family="Arial, Helvetica, sans-serif" font-size="18" fill="#374151">0.630</text>
<text x="40" y="354" font-family="Arial, Helvetica, sans-serif" font-size="20" fill="#1f2937">#6 ACC 6600 Business Law for Accountants</text>
<rect x="796.8" y="330" width="163.9" height="36" fill="#3b82f6" rx="3"/>
<text x="1330" y="354" font-family="Arial, Helvetica, sans-serif" font-size="18" fill="#374151">0.563</text>
<text x="40" y="398" font-family="Arial, Helvetica, sans-serif" font-size="20" fill="#1f2937">#7 ACC 6420 Corporate Tax</text>
<rect x="796.8" y="374" width="160.4" height="36" fill="#3b82f6" rx="3"/>
<text x="1330" y="398" font-family="Arial, Helvetica, sans-serif" font-size="18" fill="#374151">0.550</text>
<text x="40" y="442" font-family="Arial, Helvetica, sans-serif" font-size="20" fill="#1f2937">#8 ACC 6030 Financial Accounting Reporting</text>
<rect x="796.8" y="418" width="133.6" height="36" fill="#3b82f6" rx="3"/>
<text x="1330" y="442" font-family="Arial, Helvetica, sans-serif" font-size="18" fill="#374151">0.459</text>
<text x="40" y="486" font-family="Arial, Helvetica, sans-serif" font-size="20" fill="#1f2937">#9 ACC 6350 Managment Control Systems</text>
<rect x="796.8" y="462" width="127.3" height="36" fill="#3b82f6" rx="3"/>
<text x="1330" y="486" font-family="Arial, Helvetica, sans-serif" font-size="18" fill="#374151">0.437</text>
<text x="40" y="530" font-family="Arial, Helvetica, sans-serif" font-size="20" fill="#1f2937">#10 ACC 6600 Business Law for Accountants (if taken as an elective)</text>
<rect x="796.8" y="506" width="117.7" height="36" fill="#3b82f6" rx="3"/>
<text x="1330" y="530" font-family="Arial, Helvetica, sans-serif" font-size="18" fill="#374151">0.404</text>
<text x="40" y="574" font-family="Arial, Helvetica, sans-serif" font-size="20" fill="#1f2937">#11 ACC 6410 Tax Research &amp; Procedure</text>
<rect x="796.8" y="550" width="116.4" height="36" fill="#3b82f6" rx="3"/>
<text x="1330" y="574" font-family="Arial, Helvetica, sans-serif" font-size="18" fill="#374151">0.399</text>
<text x="40" y="618" font-family="Arial, Helvetica, sans-serif" font-size="20" fill="#1f2937">#12 ACC 6140 Fraud Exam &amp; Forensic Acc</text>
<rect x="796.8" y="594" width="84.3" height="36" fill="#3b82f6" rx="3"/>
<text x="1330" y="618" font-family="Arial, Helvetica, sans-serif" font-size="18" fill="#374151">0.289</text>
<text x="40" y="662" font-family="Arial, Helvetica, sans-serif" font-size="20" fill="#1f2937">#13 ACC 6350 Mgmt Control Sys (if taken as an elective)</text>
<rect x="796.8" y="638" width="81.4" height="36" fill="#3b82f6" rx="3"/>
<text x="1330" y="662" font-family="Arial, Helvetica, sans-serif" font-size="18" fill="#374151">0.279</text>
<text x="40" y="706" font-family="Arial, Helvetica, sans-serif" font-size="20" fill="#1f2937">#14 ACC 6250 Financial Reporting and Analysis</text>
<rect x="796.8" y="682" width="79.3" height="36" fill="#3b82f6" rx="3"/>
<text x="1330" y="706" font-family="Arial, Helvetica, sans-serif" font-size="18" fill="#374151">0.272</text>
<text x="40" y="750" font-family="Arial, Helvetica, sans-serif" font-size="20" fill="#1f2937">#15 ACC 6440 Partnership Tax</text>
<rect x="796.8" y="726" width="64.1" height="36" fill="#3b82f6" rx="3"/>
<text x="1330" y="750" font-family="Arial, Helvetica, sans-serif" font-size="18" fill="#374151">0.220</text>
<text x="40" y="794" font-family="Arial, Helvetica, sans-serif" font-size="20" fill="#1f2937">#16 ACC 679R Special Topics</text>
<rect x="796.8" y="770" width="16.5" height="36" fill="#3b82f6" rx="3"/>
<text x="1330" y="794" font-family="Arial, Helvetica, sans-serif" font-size="18" fill="#374151">0.057</text>
<text x="40" y="838" font-family="Arial, Helvetica, sans-serif" font-size="20" fill="#1f2937">#17 ACC 6510 Financial Audit</text>
<rect x="766.0" y="814" width="30.8" height="36" fill="#ef4444" rx="3"/>
<text x="1330" y="838" font-family="Arial, Helvetica, sans-serif" font-size="18" fill="#374151">-0.106</text>
<text x="40" y="882" font-family="Arial, Helvetica, sans-serif" font-size="20" fill="#1f2937">#18 ACC 6610 Finance Statement Research</text>
<rect x="751.2" y="858" width="45.6" height="36" fill="#ef4444" rx="3"/>
<text x="1330" y="882" font-family="Arial, Helvetica, sans-serif" font-size="18" fill="#374151">-0.157</text>
<text x="40" y="926" font-family="Arial, Helvetica, sans-serif" font-size="20" fill="#1f2937">#19 ACC 6540 Professional Ethics</text>
<rect x="520.0" y="902" width="276.8" height="36" fill="#ef4444" rx="3"/>
<text x="1330" y="926" font-family="Arial, Helvetica, sans-serif" font-size="18" fill="#374151">-0.950</text>
<rect x="40" y="940" width="18" height="18" fill="#3b82f6"/>
<text x="66" y="945" font-family="Arial, Helvetica, sans-serif" font-size="18" fill="#374151">Positive score</text>
<rect x="220" y="940" width="18" height="18" fill="#ef4444"/>
<text x="246" y="945" font-family="Arial, Helvetica, sans-serif" font-size="18" fill="#374151">Negative score</text>
</svg>